<svg width="44" height="44" viewBox="0 0 44 44" fill="none" xmlns="http://www.w3.org/2000/svg">
<g id="send" clip-path="url(#clip0_454_391)">
<path id="Icon" d="M31.1393 12.7944C31.4855 13.1405 31.6064 13.6526 31.4516 14.117L23.2266 38.7918C23.0689 39.2648 22.6533 39.605 22.1584 39.6659C21.6636 39.7268 21.1778 39.4976 20.9101 39.077L14.6671 29.2666L4.85672 23.0236C4.43608 22.7559 4.20693 22.2702 4.26785 21.7753C4.32876 21.2805 4.66889 20.8648 5.14189 20.7071L29.8167 12.4822C30.2812 12.3274 30.7932 12.4482 31.1393 12.7944ZM17.2503 28.5112L21.6331 35.3984L27.2681 18.4934L17.2503 28.5112ZM25.4403 16.6657L8.5353 22.3007L15.4225 26.6834L25.4403 16.6657Z" fill="#4691F2"/>
</g>
<defs>
<clipPath id="clip0_454_391">
<rect width="31.0182" height="31.0182" fill="white" transform="translate(22.0005) rotate(45)"/>
</clipPath>
</defs>
</svg>
