<svg width="51" height="55" viewBox="0 0 51 55" fill="none" xmlns="http://www.w3.org/2000/svg">
<path id="Vector" d="M1.79927 2.08221C0.260853 4.01658 -0.109934 6.62694 0.784409 8.91716L9.96088 32.3205C10.6064 33.9707 10.3181 35.7625 9.27993 37.1474L3.38824 44.7142C1.91135 46.5712 0.898712 48.7974 0.388105 51.1071L0.068214 52.6211C-0.183131 53.8107 1.05486 54.7953 2.15733 54.2826L3.56047 53.6301C5.69594 52.6127 7.63707 51.125 9.11395 49.268L15.1604 41.8242C16.2373 40.4701 17.9877 39.778 19.7101 40.0742L44.5784 43.747C47.0112 44.1029 49.4711 43.154 51.0095 41.2196C40.4203 39.3663 29.3201 34.2645 24.8131 32.0695C24.1792 31.7548 24.0534 30.96 24.4534 30.4571L26.378 31.2931C27.3056 31.715 28.3852 31.3105 28.8845 30.4444L30.1591 28.0476C30.3358 27.746 30.3964 27.3521 30.3182 26.9741C30.2399 26.5961 30.3005 26.2022 30.508 25.8619L31.0073 24.9959L30.1756 25.7239C29.9216 25.9639 29.6209 26.1038 29.2736 26.1434L28.718 26.2067L27.815 26.3097L29.0765 24.7235C29.8765 23.7176 30.5912 22.5807 31.1283 21.4289L33.8594 15.4537L40.7595 17.6572C42.2586 18.1547 43.878 17.5479 44.7079 16.1869L45.9219 14.184L35.8381 10.901L36.5976 9.23139C36.7435 8.9685 36.3953 8.69158 36.172 8.89294L34.7162 10.0088L29.209 0.892L27.5 2.56438C26.3914 3.64061 26.1647 5.35506 26.9561 6.74236L30.7029 13.0696L25.5266 17.037C24.4945 17.8582 23.5784 18.7718 22.7784 19.7777L21.5169 21.3639L21.414 20.4609L21.3506 19.9053C21.311 19.558 21.3796 19.2336 21.5563 18.932L22.0784 17.9578L21.347 18.6392C21.0622 18.918 20.692 19.0657 20.3061 19.0745C19.9201 19.0834 19.5887 19.2619 19.2959 19.4711L17.2476 21.2526C16.4774 21.9032 16.365 23.077 16.9849 23.8858L18.2326 25.5729C17.8019 26.1145 16.9913 26.1014 16.5806 25.5853C13.4196 21.6187 5.98863 11.9825 1.79927 2.08221Z" fill="#4691F2"/>
</svg>
